<svg width="218" height="211" viewBox="0 0 218 211" fill="none" xmlns="http://www.w3.org/2000/svg">
<path d="M89.4438 66.2067L87.5891 66.1253C87.6997 63.5954 88.8105 41.2903 93.6926 37.2214C94.0027 36.9444 94.3683 36.7368 94.765 36.6125C95.1618 36.4883 95.5804 36.4502 95.993 36.501C98.8996 36.9058 102.073 41.5178 105.696 50.6005C108.276 57.0673 110.135 63.5153 110.153 63.5798L108.369 64.0926C108.351 64.0289 106.514 57.6589 103.968 51.2774C99.4716 40.0101 96.7141 38.4771 95.7373 38.3412C95.5805 38.3242 95.422 38.3431 95.2736 38.3964C95.1251 38.4497 94.9908 38.5361 94.8806 38.649C91.2781 41.651 89.7347 59.5594 89.4438 66.2067Z" fill="black"/>
<path d="M73.0582 54.1715L71.2015 100.761L132.461 94.1581L124.888 49.1769L73.0582 54.1715Z" fill="#FFBA49"/>
<path d="M124.888 49.1769L120.382 49.6111L126.38 89.055L71.4161 95.3835L71.2015 100.761L132.461 94.1581L124.888 49.1769Z" fill="#FFA113"/>
<path d="M157.984 129.29L155.436 129.007C155.458 128.807 157.574 108.876 150.713 101.423C149.907 100.517 148.906 99.8044 147.785 99.34C146.665 98.8756 145.454 98.671 144.243 98.7415C129.299 99.1667 122.272 124.831 122.203 125.09L119.727 124.427C121.107 119.635 123.024 115.014 125.441 110.652C130.648 101.383 137.124 96.3778 144.17 96.1775C145.748 96.0965 147.323 96.3697 148.782 96.9769C150.24 97.5841 151.545 98.51 152.6 99.6868C160.249 107.999 158.08 128.425 157.984 129.29Z" fill="#FFBA49"/>
<path d="M112.524 111.012L166.599 117.429L165.761 203.236L93.5762 194.633L112.524 111.012Z" fill="#DB3022"/>
<path d="M166.599 117.43L161.244 116.794L158.636 196.189L94.5929 190.146L93.5762 194.634L165.761 203.237L166.599 117.43Z" fill="#D10505"/>
<path d="M180.152 144.699C182.614 145.215 184.96 143.245 185.392 140.295C185.852 141.08 186.311 141.865 186.77 142.652C186.339 145.601 183.991 147.572 181.532 147.056C181.072 146.269 180.612 145.484 180.152 144.699Z" fill="#FFBA49"/>
<path d="M107.423 207.806C109.886 208.323 112.232 206.352 112.664 203.402C113.123 204.187 113.582 204.972 114.042 205.758C113.611 208.708 111.263 210.68 108.803 210.163C108.344 209.377 107.884 208.591 107.423 207.806Z" fill="#9B9B9B"/>
<path d="M185.652 95.3166C186.684 98.0428 189.365 99.2543 191.643 98.0172C191.361 98.9155 191.079 99.8136 190.795 100.711C188.518 101.946 185.837 100.737 184.805 98.0092C185.089 97.1127 185.371 96.2151 185.652 95.3166Z" fill="#FF5C00"/>
<path d="M169.715 75.9511C170.131 72.9976 168.47 70.201 166.005 69.7035C166.657 69.1469 167.309 68.5905 167.962 68.0342C170.426 68.5318 172.088 71.3295 171.673 74.2819C171.021 74.8386 170.369 75.395 169.715 75.9511Z" fill="#021193"/>
<path d="M21.7261 64.0313C22.1418 61.0778 20.481 58.2811 18.0153 57.7836C18.6673 57.227 19.3199 56.6706 19.9732 56.1145C22.437 56.6119 24.0987 59.4096 23.6841 62.3621C23.0321 62.9186 22.3794 63.4751 21.7261 64.0313Z" fill="#FF5C00"/>
<path d="M72.1555 168.685C72.5712 165.731 70.9104 162.934 68.4447 162.437C69.0967 161.88 69.7494 161.324 70.4026 160.768C72.8664 161.265 74.5281 164.063 74.1134 167.016C73.4614 167.572 72.8088 168.128 72.1555 168.685Z" fill="#FF5C00"/>
<path d="M201.503 58.0056C203.949 58.6231 206.348 56.7481 206.864 53.8161C207.301 54.6194 207.739 55.4233 208.176 56.2279C207.662 59.1569 205.261 61.0331 202.816 60.4174C202.378 59.6141 201.94 58.8102 201.503 58.0056Z" fill="#FFBA49"/>
<path d="M5.82573 94.2884C4.94885 91.4832 2.34133 90.0607 0 91.1125C0.331198 90.2404 0.662884 89.3671 0.995058 88.4927C3.33445 87.4421 5.94342 88.8634 6.82078 91.6674C6.4896 92.5407 6.15791 93.4143 5.82573 94.2884Z" fill="#FFBA49"/>
<path d="M66.5904 128.456C66.7632 131.443 68.9251 133.696 71.4182 133.488C70.8925 134.214 70.3658 134.936 69.841 135.661C67.3469 135.867 65.1858 133.612 65.0131 130.625C65.5389 129.903 66.0647 129.18 66.5904 128.456Z" fill="#DB3022"/>
<path d="M48.9702 74.183C51.4463 73.7714 53.1746 71.0321 52.83 68.0655C53.4697 68.6448 54.1084 69.2234 54.7462 69.8012C55.0897 72.769 53.3625 75.5065 50.8864 75.9198C50.2486 75.3404 49.6099 74.7615 48.9702 74.183Z" fill="#021193"/>
<path d="M149.939 37.8049C146.728 37.9112 149.036 43.5687 145.825 43.6774C145.212 43.0605 144.598 42.4436 143.984 41.8267C147.196 41.7199 144.888 36.0623 148.099 35.9538C148.713 36.5707 149.326 37.1877 149.939 37.8049Z" fill="#FF5C00"/>
<path d="M155.774 186.503C152.648 185.616 153.661 191.795 150.535 190.909C150.075 190.124 149.615 189.338 149.155 188.552C152.281 189.439 151.268 183.26 154.395 184.147C154.854 184.933 155.314 185.718 155.774 186.503Z" fill="#FFBA49"/>
<path d="M62.8339 194.547C60.6265 197.344 65.5976 199.393 63.3901 202.188C62.5929 202.27 61.7947 202.355 60.9975 202.436C63.205 199.641 58.2338 197.594 60.4413 194.797C61.2395 194.715 62.037 194.632 62.8339 194.547Z" fill="#021193"/>
<path d="M134.339 1.42304C131.196 2.22293 134.316 7.2921 131.174 8.09027C130.479 7.61497 129.781 7.14143 129.086 6.66497C132.229 5.86727 129.107 0.799933 132.25 0C132.947 0.476441 133.643 0.950787 134.339 1.42304Z" fill="#DB3022"/>
<path d="M33.4721 18.0861C35.0181 21.4609 38.1694 16.4203 39.713 19.794C39.5337 20.7281 39.3567 21.6656 39.1764 22.6002C37.6327 19.2255 34.4833 24.2677 32.9373 20.8929C33.1172 19.956 33.2954 19.0204 33.4721 18.0861Z" fill="#9B9B9B"/>
<path d="M6.82072 150.778C7.2354 150.703 7.61057 150.485 7.88073 150.161C8.15089 149.837 8.29888 149.429 8.29888 149.007C8.29888 148.585 8.15089 148.177 7.88073 147.853C7.61057 147.53 7.2354 147.311 6.82072 147.236" fill="black"/>
<path d="M174.596 13.9445C173.245 13.9445 172.146 12.6277 172.146 11.0091C172.146 9.39043 173.245 8.07374 174.596 8.07374C175.947 8.07374 177.046 9.39047 177.046 11.0091C177.046 12.6277 175.947 13.9445 174.596 13.9445ZM174.596 9.2381C174.167 9.28054 173.771 9.4899 173.495 9.82111C173.219 10.1523 173.083 10.5789 173.118 11.0091C173.079 11.2257 173.087 11.4482 173.144 11.661C173.2 11.8738 173.302 12.0716 173.443 12.2405C173.584 12.4095 173.76 12.5453 173.96 12.6386C174.159 12.7318 174.376 12.7801 174.596 12.7801C174.816 12.7801 175.033 12.7318 175.232 12.6386C175.431 12.5453 175.608 12.4095 175.749 12.2405C175.89 12.0716 175.992 11.8738 176.048 11.661C176.104 11.4482 176.113 11.2257 176.074 11.0091C176.109 10.5789 175.973 10.1523 175.697 9.82113C175.42 9.48992 175.025 9.28056 174.596 9.2381Z" fill="black"/>
<path d="M31.9745 125.156C30.6236 125.156 29.5245 123.84 29.5245 122.221C29.5245 120.602 30.6236 119.286 31.9745 119.286C33.3254 119.286 34.4245 120.602 34.4245 122.221C34.4245 123.84 33.3254 125.156 31.9745 125.156ZM31.9745 120.45C31.5598 120.525 31.1847 120.744 30.9145 121.067C30.6443 121.391 30.4963 121.799 30.4963 122.221C30.4963 122.643 30.6443 123.051 30.9145 123.375C31.1847 123.698 31.5598 123.917 31.9745 123.992C32.3892 123.917 32.7643 123.698 33.0345 123.375C33.3047 123.051 33.4527 122.643 33.4527 122.221C33.4527 121.799 33.3047 121.391 33.0345 121.067C32.7643 120.744 32.3892 120.525 31.9745 120.45Z" fill="black"/>
<path d="M217.005 154.334C216.128 151.529 213.52 150.107 211.179 151.158C211.51 150.286 211.842 149.413 212.174 148.539C214.514 147.488 217.122 148.909 218 151.713C217.669 152.587 217.337 153.46 217.005 154.334Z" fill="black"/>
</svg>
